<svg width="48" height="48" viewBox="0 0 48 48" xmlns="http://www.w3.org/2000/svg">
  <rect width="48" height="48" rx="8" fill="#2C71EE"/>
  <path d="M24 12C17.373 12 12 17.373 12 24C12 30.627 17.373 36 24 36C30.627 36 36 30.627 36 24C36 17.373 30.627 12 24 12ZM24 16C28.418 16 32 19.582 32 24C32 28.418 28.418 32 24 32C19.582 32 16 28.418 16 24C16 19.582 19.582 16 24 16Z" fill="white"/>
  <path d="M24 20C22.343 20 21 21.343 21 23V28C21 29.657 22.343 31 24 31C25.657 31 27 29.657 27 28V23C27 21.343 25.657 20 24 20Z" fill="white"/>
  <circle cx="24" cy="19" r="2" fill="white"/>
</svg> 