<svg xmlns="http://www.w3.org/2000/svg" xmlns:xlink="http://www.w3.org/1999/xlink" style="position: absolute; width: 0; height: 0" aria-hidden="true" id="__SVG_SPRITE_NODE__">
    <symbol xmlns="http://www.w3.org/2000/svg" xmlns:xlink="http://www.w3.org/1999/xlink" viewBox="0 0 48 48" id="icon-android">
        <title>Android</title>
        <rect fill="#000000" opacity="0" x="0" y="0" width="48" height="48"></rect>
        <path d="M13.601802,34.4023232 C13.601802,35.3557728 14.3816573,36.1358679 15.334819,36.1358679 L17.0678361,36.1358679 L17.0678361,42.2032262 C17.0678361,43.6420587 18.2289848,44.8035432 19.6673856,44.8035432 C21.1057863,44.8035432 22.2669351,43.6420587 22.2669351,42.2032262 L22.266935,36.1358199 L25.733017,36.1358199 L25.733017,42.2031783 C25.733017,43.6420108 26.8941658,44.8035432 28.3325665,44.8035432 C29.7709673,44.8035432 30.932116,43.6420108 30.932116,42.2031783 L30.932116,36.1358199 L32.6651331,36.1358199 C33.6182948,36.1358199 34.3981501,35.3557248 34.3981501,34.4022753 L34.3981501,17.0669246 L13.601802,17.0669246 L13.601802,34.4023232 Z M9.26923547,17.0669246 C7.8308347,17.0669246 6.66968597,18.2284091 6.66968597,19.6672416 L6.66968597,31.8020062 C6.66968597,33.2408387 7.8308347,34.4023232 9.26923547,34.4023232 C10.7076362,34.4023232 11.868785,33.2408387 11.868785,31.8020062 L11.868785,19.6672416 C11.868785,18.2284091 10.7076362,17.0669246 9.26923547,17.0669246 Z M38.7307645,17.0669246 C37.2923638,17.0669246 36.131215,18.2284091 36.131215,19.6672416 L36.131215,31.8020062 C36.131215,33.2408387 37.2923638,34.4023232 38.7307645,34.4023232 C40.1691653,34.4023232 41.330314,33.2408387 41.330314,31.8020062 L41.330314,19.6672416 C41.330314,18.2284091 40.1691653,17.0669246 38.7307645,17.0669246 Z M30.1175803,6.94305262 L32.3791989,4.68081042 C32.7171298,4.34278359 32.7171298,3.79672181 32.3791989,3.45864703 C32.041268,3.1206202 31.4953501,3.1206202 31.1574193,3.45864703 L28.5925502,6.01560141 C27.2061462,5.33086566 25.6550699,4.93215998 24,4.93215998 C22.336296,4.93215998 20.7765375,5.33086566 19.3814514,6.02428355 L16.8079003,3.44996494 C16.4699694,3.11193811 15.9240515,3.11193811 15.5861206,3.44996494 C15.2481898,3.78799177 15.2481898,4.33405355 15.5861206,4.67212833 L17.8563734,6.94305262 C15.2828223,8.84126962 13.601802,11.892289 13.601802,15.33338 L34.398198,15.33338 C34.398198,11.8836549 32.7084956,8.83263548 30.1175803,6.94305262 Z M20.533918,11.8662907 L18.800901,11.8662907 L18.800901,10.132746 L20.533918,10.132746 L20.533918,11.8662907 Z M29.199099,11.8662907 L27.466082,11.8662907 L27.466082,10.132746 L29.199099,10.132746 L29.199099,11.8662907 Z" fill="#2C71EE"></path>
    </symbol>
    
    <symbol xmlns="http://www.w3.org/2000/svg" xmlns:xlink="http://www.w3.org/1999/xlink" viewBox="0 0 48 48" id="icon-ios">
        <title>iOS</title>
        <rect fill="#000000" opacity="0" x="0" y="0" width="48" height="48"></rect>
        <path d="M35.802,45.402 L12.258,45.402 C6.912,45.402 2.58,41.07 2.58,35.724 L2.58,12.18 C2.58,6.834 6.912,2.502 12.258,2.502 L35.802,2.502 C41.148,2.502 45.48,6.834 45.48,12.18 L45.48,35.724 C45.48,41.07 41.148,45.402 35.802,45.402 L35.802,45.402 Z" fill="#2C71EE"></path>
        <path d="M24.834,27.492 L20.124,27.492 L23.67,21.372 L24.03,20.748 L26.46,16.572 L26.928,15.756 L27.936,14.028 C28.38,13.272 28.392,12.3 27.888,11.586 C27.456,10.974 26.838,10.728 26.226,10.728 C25.506,10.728 24.804,11.1 24.408,11.772 L24.048,12.408 L23.676,11.772 C23.28,11.1 22.572,10.728 21.858,10.728 C21.498,10.728 21.138,10.812 20.802,11.004 C19.806,11.58 19.464,12.87 20.046,13.866 L21.612,16.572 L15.276,27.504 L11.16,27.504 C9.9,27.516 8.892,28.632 9.09,29.946 C9.246,30.978 10.212,31.698 11.256,31.698 L12.846,31.698 L17.694,31.686 L27.372,31.686 C27.552,31.686 27.732,31.608 27.84,31.464 C28.392,30.726 28.8,29.58 27.45,28.398 C26.736,27.768 25.782,27.492 24.834,27.492 Z" fill="#FFFFFF"></path>
        <path d="M36.81,27.48 L32.778,27.48 L27.384,18.174 C27.288,18.012 27.072,17.958 26.922,18.066 C26.166,18.612 25.722,19.374 25.494,20.214 C25.11,21.63 25.428,23.148 26.16,24.42 L27.318,26.43 L27.93,27.498 L30.36,31.686 L30.612,32.106 L32.946,36.138 C33.342,36.81 34.038,37.182 34.752,37.182 C35.112,37.182 35.484,37.086 35.82,36.894 C36.816,36.318 37.158,35.04 36.576,34.032 L35.214,31.674 L36.912,31.674 C38.172,31.674 39.174,30.534 38.97,29.22 C38.802,28.194 37.848,27.48 36.81,27.48 L36.81,27.48 Z M14.982,32.232 C14.244,31.932 13.548,31.968 12.99,32.124 C12.684,32.208 12.432,32.418 12.276,32.688 L11.496,34.02 C10.908,35.028 11.256,36.306 12.252,36.882 C12.588,37.074 12.96,37.17 13.32,37.17 C14.04,37.17 14.73,36.798 15.114,36.126 L16.002,34.596 C16.218,34.218 16.26,33.762 16.098,33.36 C15.918,32.91 15.582,32.478 14.982,32.232 L14.982,32.232 Z" fill="#FFFFFF"></path>
    </symbol>
    
    <symbol xmlns="http://www.w3.org/2000/svg" xmlns:xlink="http://www.w3.org/1999/xlink" viewBox="0 0 48 48" id="icon-mac">
        <title>macOS</title>
        <rect fill="#000000" opacity="0" x="0" y="0" width="48" height="48"></rect>
        <path d="M36.2322225,25.6221113 C36.1784938,20.1149583 40.6715575,17.4748199 40.871697,17.3430168 C38.3464474,13.6049721 34.4135055,13.0940653 33.0125293,13.0342783 C29.6652304,12.691862 26.4818041,15.0276303 24.7826335,15.0276303 C23.0888358,15.0276303 20.4668745,13.0845537 17.6904432,13.1361879 C14.0422635,13.1905397 10.6775028,15.281725 8.79968419,18.5876728 C5.00912339,25.2416488 7.82853768,35.0983466 11.52373,40.4954797 C13.3290148,43.1369769 15.482193,46.1032261 18.3083234,45.9972401 C21.0296828,45.8871777 22.0599309,44.21586 25.3494714,44.21586 C28.639012,44.21586 29.5644891,45.9972401 32.4456914,45.9428883 C35.3739063,45.8871777 37.2302334,43.2511157 39.0234292,40.6014657 C41.0960144,37.5373834 41.9503009,34.5697754 42,34.4175904 C41.9355255,34.3876969 36.2886377,32.2000372 36.2322225,25.6221113 L36.2322225,25.6221113 Z M30.642475,9.60981955 C32.1924832,7.59195155 33.2387734,4.79225277 32.9529169,2 C30.7201836,2.0982873 28.0142606,3.59642398 26.4129093,5.60833518 C24.9753011,7.39388775 23.7180876,10.2442194 24.0552873,12.9813717 C26.5475117,13.1898599 29.0910792,11.6217307 30.642475,9.60981955 Z" fill="#2C71EE"></path>
    </symbol>
    
    <symbol xmlns="http://www.w3.org/2000/svg" xmlns:xlink="http://www.w3.org/1999/xlink" viewBox="0 0 48 48" id="icon-windows">
        <title>Windows</title>
        <rect fill="#000000" opacity="0" x="0" y="0" width="48" height="48"></rect>
        <path d="M24.553125,8.971875 L24.553125,22.5140625 L42.459375,22.5140625 L42.459375,6.0046875 L24.553125,8.971875 Z M24.553125,39.075 L42.459375,41.990625 L42.459375,25.490625 L24.553125,25.490625 L24.553125,39.075 Z M5.6296875,22.509375 L20.765625,22.509375 L20.765625,9.4640625 L5.6296875,11.971875 L5.6296875,22.509375 Z M5.6296875,36.121875 L20.765625,38.5875 L20.765625,25.490625 L5.6296875,25.490625 L5.6296875,36.121875 Z" fill="#2C71EE"></path>
    </symbol>
</svg> 